HIERARCHY
ROOT Hips
{
	OFFSET 0.00 0.00 0.00
	CHANNELS 6 Xposition Yposition Zposition Xrotation Yrotation Zrotation
	JOINT Spine
	{
		OFFSET 0.00000 7.53995 0.00000
		CHANNELS 3 Xrotation Yrotation Zrotation
		JOINT Head
		{
			OFFSET 0.00000 15.09381 0.00000
			CHANNELS 3 Xrotation Yrotation Zrotation
			End Site
			{
				OFFSET 0.00000 4.52755 0.00000
			}
		}
		JOINT LeftShoulder
		{
			OFFSET 0.00000 9.73893 0.00000
			CHANNELS 3 Xrotation Yrotation Zrotation
			JOINT LeftArm
			{
				OFFSET 7.08401 0.00000 0.00000
				CHANNELS 3 Xrotation Yrotation Zrotation
				JOINT LeftForeArm
				{
					OFFSET 10.25932 0.00000 0.00000
					CHANNELS 3 Yrotation Zrotation Xrotation
					JOINT LeftHand
					{
						OFFSET 9.89698 0.00000 0.00000
						CHANNELS 3 Xrotation Yrotation Zrotation
						JOINT LeftHandThumb1
						{
							OFFSET 0.00000 0.00000 0.00000
							CHANNELS 3 Xrotation Zrotation Yrotation
							End Site
							{
								OFFSET 0.00000 0.00000 3.93700
							}
						}
						End Site
						{
							OFFSET 3.93700 0.00000 0.00000
						}
					}
				}
			}
		}
		JOINT RightShoulder
		{
			OFFSET 0.00000 9.73893 0.00000
			CHANNELS 3 Xrotation Yrotation Zrotation
			JOINT RightArm
			{
				OFFSET -7.08401 0.00000 0.00000
				CHANNELS 3 Xrotation Yrotation Zrotation
				JOINT RightForeArm
				{
					OFFSET -10.25932 0.00000 0.00000
					CHANNELS 3 Yrotation Zrotation Xrotation
					JOINT RightHand
					{
						OFFSET -9.89698 0.00000 0.00000
						CHANNELS 3 Xrotation Yrotation Zrotation
						JOINT RightHandThumb1
						{
							OFFSET 0.00000 0.00000 0.00000
							CHANNELS 3 Xrotation Zrotation Yrotation
							End Site
							{
								OFFSET 0.00000 0.00000 3.93700
							}
						}
						End Site
						{
							OFFSET -3.93700 0.00000 0.00000
						}
					}
				}
			}
		}
	}
	JOINT LeftUpLeg
	{
		OFFSET 3.34548 0.00000 0.00000
		CHANNELS 3 Xrotation Yrotation Zrotation
		JOINT LeftLeg
		{
			OFFSET 0.00000 -19.11473 0.00000
			CHANNELS 3 Xrotation Yrotation Zrotation
			JOINT LeftFoot
			{
				OFFSET 0.00000 -16.04560 0.00000
				CHANNELS 3 Xrotation Yrotation Zrotation
				JOINT LeftToeBase
				{
					OFFSET 0.00000 -1.43467 5.35428
					CHANNELS 3 Xrotation Yrotation Zrotation
					End Site
					{
						OFFSET 0.00000 0.00000 2.95275
					}
				}
			}
		}
	}
	JOINT RightUpLeg
	{
		OFFSET -3.34548 0.00000 0.00000
		CHANNELS 3 Xrotation Yrotation Zrotation
		JOINT RightLeg
		{
			OFFSET 0.00000 -19.11473 0.00000
			CHANNELS 3 Xrotation Yrotation Zrotation
			JOINT RightFoot
			{
				OFFSET 0.00000 -16.04560 0.00000
				CHANNELS 3 Xrotation Yrotation Zrotation
				JOINT RightToeBase
				{
					OFFSET 0.00000 -1.43467 5.35428
					CHANNELS 3 Xrotation Yrotation Zrotation
					End Site
					{
						OFFSET 0.00000 0.00000 2.95275
					}
				}
			}
		}
	}
}
MOTION
Frames:	13
Frame Time: 0.008333
1.5996 36.9735 4.7594 7.8942 4.4557 0.2747 -14.7744 -6.4430 -8.4469 23.2511 -10.9228 -1.2422 18.9355 13.2128 7.1374 -4.5261 -34.5283 -67.6026 -30.9126 0.0000 -0.2811 -0.1573 -0.8257 -10.7828 32.8623 0.0000 24.3270 -30.7257 8.7070 -34.7821 -74.4061 4.2308 23.7407 145.0220 -0.0000 -7.2118 -1.5168 -3.2054 -25.3402 33.1476 -0.0000 -26.2537 -6.6636 9.1376 4.2844 9.8691 -0.0000 -0.0000 -10.9615 13.9288 -16.9239 9.1369 -0.0000 -0.0000 -4.0604 -11.0721 -6.9214 7.1438 -0.0000 -0.0000 -12.3898 -17.7905 18.8276 13.5747 -0.0000 -0.0000
1.6046 36.9737 4.7608 7.8943 4.5986 0.2891 -14.7789 -6.4446 -8.4790 23.2532 -10.8974 -1.3898 18.9542 13.2893 7.1098 -4.4832 -34.5838 -67.6299 -30.7595 -0.0000 -0.2514 -0.1746 -0.9141 -10.8120 32.8623 0.0000 24.3270 -30.6897 8.6608 -34.7948 -74.2813 4.4661 23.5707 144.9764 -0.0000 -5.7912 -1.7913 -3.7658 -25.4625 33.1476 -0.0000 -26.2537 -6.6690 9.0801 4.2498 9.8583 -0.0000 -0.0000 -10.9172 13.8461 -16.9336 9.0424 -0.0000 -0.0000 -4.0516 -11.1558 -6.9518 7.1602 -0.0000 -0.0000 -12.4112 -17.8533 18.8392 13.5777 -0.0000 -0.0000
1.6107 36.9729 4.7625 7.8919 4.7181 0.3005 -14.7676 -6.4489 -8.4799 23.2388 -10.6917 -1.5054 18.9770 13.3410 7.0652 -4.4229 -34.5754 -67.6596 -30.6245 0.0000 -0.1936 -0.1638 -0.8550 -10.8432 32.8623 0.0000 24.3270 -30.6964 8.6491 -34.8275 -74.1462 4.6602 23.4144 144.9132 -0.0000 -4.5542 -2.0775 -4.3735 -25.4396 33.1476 -0.0000 -26.2537 -6.6637 9.0219 4.2185 9.8303 -0.0000 -0.0000 -10.9177 13.7926 -16.9029 9.0930 -0.0000 -0.0000 -4.0420 -11.2320 -6.9803 7.1751 -0.0000 -0.0000 -12.4307 -17.8872 18.8341 13.5760 -0.0000 -0.0000
1.6157 36.9736 4.7624 7.8795 4.8359 0.3136 -14.7510 -6.4568 -8.5089 23.2144 -10.8207 -1.6629 18.9926 13.3591 7.0614 -4.3405 -34.5657 -67.6970 -30.4543 -0.0000 -0.1340 -0.1709 -0.8913 -10.8542 32.8623 0.0000 24.3270 -30.7076 8.6343 -34.8020 -74.0422 4.8330 23.2605 144.7739 0.0000 -3.4278 -2.3385 -4.9150 -25.4845 33.1476 -0.0000 -26.2537 -6.6606 8.9454 4.1868 9.8268 -0.0000 -0.0000 -10.8977 13.7503 -16.8817 9.0799 -0.0000 -0.0000 -4.0262 -11.3304 -7.0086 7.1845 -0.0000 -0.0000 -12.4371 -17.8982 18.8272 13.5668 -0.0000 -0.0000
1.6194 36.9731 4.7595 7.8868 4.9491 0.3085 -14.7374 -6.4773 -8.5019 23.1867 -10.7535 -1.7880 19.0043 13.4021 7.0345 -4.2675 -34.5666 -67.7352 -30.2980 -0.0000 -0.0630 -0.1469 -0.7655 -10.8633 32.8623 0.0000 24.3270 -30.7687 8.6334 -34.8215 -73.8289 5.0107 23.1503 144.5497 -0.0000 -2.0772 -2.6362 -5.5608 -25.4145 33.1476 -0.0000 -26.2537 -6.6859 8.8730 4.1758 9.8294 -0.0000 -0.0000 -10.8936 13.7092 -16.8761 9.0726 -0.0000 -0.0000 -4.0267 -11.4072 -7.0169 7.1890 -0.0000 -0.0000 -12.4389 -17.9347 18.8393 13.5343 -0.0000 -0.0000
1.6218 36.9728 4.7573 7.8872 5.0412 0.2974 -14.7276 -6.5063 -8.4822 23.1972 -10.6532 -1.9317 19.0541 13.4559 6.9967 -4.2349 -34.5995 -67.7737 -30.0693 -0.0000 -0.1026 -0.1457 -0.7577 -10.8868 32.8623 0.0000 24.3270 -30.8268 8.7035 -34.8551 -73.7208 5.0099 23.0118 144.3369 -0.0000 -1.6425 -2.7654 -5.8801 -25.2434 33.1476 -0.0000 -26.2537 -6.7062 8.8100 4.1750 9.8417 -0.0000 -0.0000 -10.8926 13.6753 -16.8608 9.0513 -0.0000 -0.0000 -4.0262 -11.4977 -7.0158 7.1994 -0.0000 -0.0000 -12.4462 -17.9295 18.8105 13.5323 -0.0000 -0.0000
1.6250 36.9723 4.7549 7.8969 5.1259 0.2987 -14.7341 -6.5130 -8.4867 23.1596 -10.5389 -2.0919 19.0596 13.5057 6.9943 -4.1807 -34.6256 -67.8331 -29.8047 -0.0000 -0.0658 -0.1528 -0.7780 -11.1085 32.8623 0.0000 24.3270 -30.8731 8.7410 -34.8752 -73.6350 5.0017 22.8966 144.0677 0.0000 -1.0884 -2.9561 -6.4375 -24.7295 33.1476 -0.0000 -26.2537 -6.7340 8.7057 4.1586 9.8715 -0.0000 -0.0000 -10.9046 13.6965 -16.8861 9.0844 -0.0000 -0.0000 -4.0369 -11.5794 -7.0304 7.2065 -0.0000 -0.0000 -12.4531 -17.9358 18.8176 13.5159 -0.0000 -0.0000
1.6290 36.9723 4.7539 7.8872 5.1731 0.3027 -14.7067 -6.5112 -8.4705 23.1352 -10.4660 -2.2267 19.0626 13.5693 6.9686 -4.1413 -34.6678 -67.8930 -29.5023 0.0000 0.0565 -0.1491 -0.7634 -11.0546 32.8623 0.0000 24.3270 -30.9844 8.8253 -34.9333 -73.5107 4.9071 22.8276 143.7901 -0.0000 -0.7266 -3.1155 -6.8741 -24.4545 33.1476 -0.0000 -26.2537 -6.7292 8.6230 4.1418 9.8761 -0.0000 -0.0000 -10.9024 13.7259 -16.8684 9.0711 -0.0000 -0.0000 -4.0285 -11.6382 -7.0429 7.2065 -0.0000 -0.0000 -12.4586 -17.9348 18.8106 13.5343 -0.0000 -0.0000
1.6341 36.9726 4.7529 7.8751 5.2079 0.3098 -14.6929 -6.5052 -8.4642 23.1349 -10.4786 -2.3486 19.0700 13.5977 6.9635 -4.0750 -34.6380 -67.9792 -29.2488 0.0000 0.1808 -0.1341 -0.6860 -11.0602 32.8623 0.0000 24.3270 -31.0508 8.9040 -34.9572 -73.4030 4.8510 22.7423 143.4664 0.0000 -0.4555 -3.2802 -7.2916 -24.3022 33.1476 -0.0000 -26.2537 -6.7191 8.5474 4.1221 9.8817 -0.0000 -0.0000 -10.9080 13.7515 -16.8714 9.1240 -0.0000 -0.0000 -4.0211 -11.6908 -7.0595 7.2074 -0.0000 -0.0000 -12.4540 -17.9249 18.8191 13.5370 -0.0000 -0.0000
1.6395 36.9731 4.7515 7.8665 5.2220 0.3203 -14.6835 -6.4808 -8.4572 23.1562 -10.4347 -2.4669 19.0950 13.6275 6.9544 -4.0355 -34.6495 -68.0505 -28.9175 0.0000 0.2294 -0.1579 -0.7972 -11.2063 32.8623 0.0000 24.3270 -31.1177 8.9796 -34.9660 -73.2911 4.8082 22.6685 143.0941 -0.0000 -0.2339 -3.4423 -7.6873 -24.2123 33.1476 -0.0000 -26.2537 -6.7126 8.5462 4.1025 9.8823 -0.0000 -0.0000 -10.8983 13.7348 -16.8435 9.0698 -0.0000 -0.0000 -4.0181 -11.7292 -7.0797 7.2023 -0.0000 -0.0000 -12.4435 -17.8978 18.7928 13.4965 -0.0000 -0.0000
1.6436 36.9734 4.7495 7.8635 5.2209 0.3345 -14.6820 -6.4572 -8.4558 23.1760 -10.3915 -2.5701 19.1397 13.6736 6.9428 -4.0214 -34.6490 -68.1256 -28.6051 0.0000 0.3495 -0.1530 -0.7616 -11.3617 32.8623 0.0000 24.3270 -31.1727 9.0367 -34.9593 -73.1959 4.8045 22.6336 142.6796 -0.0000 0.1328 -3.6144 -8.1878 -23.9184 33.1476 -0.0000 -26.2537 -6.7099 8.5058 4.0813 9.8934 -0.0000 -0.0000 -10.8918 13.7598 -16.8579 9.0321 -0.0000 -0.0000 -4.0294 -11.7546 -7.1019 7.2096 -0.0000 -0.0000 -12.4474 -17.8763 18.7877 13.5218 -0.0000 -0.0000
1.6508 36.9726 4.7474 7.8630 5.2066 0.3450 -14.6281 -6.4490 -8.3896 23.1773 -9.7773 -2.6280 19.0850 13.7417 6.8559 -3.8920 -34.6568 -68.1304 -28.3314 -0.0000 0.4317 -0.1450 -0.7116 -11.5134 32.8623 0.0000 24.3270 -31.2962 9.0730 -35.0446 -73.1635 4.7616 22.7014 142.2464 0.0000 0.2443 -3.7356 -8.5381 -23.7387 33.1476 -0.0000 -26.2537 -6.7058 8.5001 4.0589 9.9008 -0.0000 -0.0000 -10.9045 13.7711 -16.8231 9.0027 -0.0000 -0.0000 -4.0338 -11.7415 -7.1228 7.2036 -0.0000 -0.0000 -12.4434 -17.8875 18.8027 13.5165 -0.0000 -0.0000
1.6584 36.9713 4.7460 7.8553 5.1755 0.3552 -14.6052 -6.4224 -8.3435 23.1688 -9.5769 -2.7133 19.1027 13.7806 6.8104 -3.8241 -34.6803 -68.1745 -28.0146 0.0000 0.5175 -0.1285 -0.6349 -11.4383 32.8623 0.0000 24.3270 -31.3803 9.2195 -35.1221 -73.0492 4.6408 22.6610 141.8271 -0.0000 0.4120 -3.8697 -8.9024 -23.6103 33.1476 -0.0000 -26.2537 -6.6947 8.4687 4.0384 9.9119 -0.0000 -0.0000 -10.9459 13.8377 -16.8542 9.1014 -0.0000 -0.0000 -4.0390 -11.7339 -7.1421 7.2086 -0.0000 -0.0000 -12.4513 -17.8804 18.8226 13.5446 -0.0000 -0.0000
